<?xml version="1.0" standalone="no"?>
<!DOCTYPE svg PUBLIC "-//W3C//DTD SVG 20010904//EN"
 "http://www.w3.org/TR/2001/REC-SVG-20010904/DTD/svg10.dtd">
<svg version="1.0" xmlns="http://www.w3.org/2000/svg"
 width="626.000000pt" height="375.000000pt" viewBox="0 0 626.000000 375.000000"
 preserveAspectRatio="xMidYMid meet">
<metadata>
Created by potrace 1.16, written by Peter Selinger 2001-2019
</metadata>
<g transform="translate(0.000000,375.000000) scale(0.100000,-0.100000)"
fill="#000000" stroke="none">
<path d="M2847 2782 c-16 -16 -25 -35 -22 -44 6 -15 -84 -108 -105 -108 -5 0
-10 -5 -10 -12 0 -7 -21 -31 -47 -55 -27 -24 -39 -39 -28 -34 11 6 60 49 110
96 59 56 96 85 107 82 9 -3 31 8 50 24 l33 28 -27 1 c-21 0 -27 5 -30 26 l-3
26 -28 -30z"/>
<path d="M2677 2669 c7 -7 15 -10 18 -7 3 3 -2 9 -12 12 -14 6 -15 5 -6 -5z"/>
<path d="M1198 2600 c-12 -16 -28 -30 -36 -30 -12 0 -11 -4 3 -20 22 -25 34
-25 50 -3 12 17 14 17 34 -1 12 -11 21 -28 21 -40 0 -15 3 -17 11 -9 9 9 8 18
-5 37 -9 15 -12 26 -7 26 5 0 12 -7 15 -16 10 -27 22 -7 18 31 -3 27 -10 39
-29 46 -39 14 -51 11 -75 -21z"/>
<path d="M2424 2608 l-19 -23 23 19 c21 18 27 26 19 26 -2 0 -12 -10 -23 -22z"/>
<path d="M2587 2523 c-2 -10 -8 -26 -12 -35 -6 -15 -3 -16 25 -8 43 12 44 13
16 39 -22 20 -24 21 -29 4z"/>
<path d="M1935 2370 c-10 -17 12 -37 25 -24 8 8 6 15 -4 23 -10 9 -16 9 -21 1z"/>
<path d="M2026 2373 c-12 -12 -6 -33 9 -33 8 0 15 6 15 14 0 17 -14 28 -24 19z"/>
<path d="M999 2343 c5 -10 23 -31 39 -46 l30 -29 -49 -108 c-58 -129 -59 -133
-38 -137 11 -3 28 14 49 47 18 27 34 50 37 50 2 0 3 -30 2 -67 -2 -61 -1 -68
17 -68 15 0 21 11 30 50 10 42 12 6 15 -235 2 -157 3 -400 1 -540 l-3 -255
-19 41 c-22 50 -83 120 -122 140 -28 15 -29 14 -19 -4 26 -50 31 -111 15 -184
-22 -97 -15 -181 20 -232 39 -58 35 -65 -36 -69 -35 -2 14 -3 107 -3 94 0 130
2 81 3 l-88 4 6 37 c17 95 94 194 163 208 l31 6 -13 -38 c-8 -22 -14 -49 -15
-61 l0 -23 360 0 360 0 0 -35 0 -35 -147 -1 c-170 -1 -180 -2 -234 -30 -84
-42 -66 -44 517 -44 495 0 549 2 552 16 6 32 -70 48 -238 50 -85 1 -161 4
-167 7 -7 2 -13 19 -13 38 l0 34 316 0 316 0 -6 28 c-24 130 -27 201 -12 339
9 78 16 192 16 253 l0 111 -53 57 c-34 37 -63 81 -81 125 -16 37 -30 66 -32
64 -10 -10 57 -145 85 -173 17 -16 31 -35 31 -42 0 -15 -1412 -17 -1440 -2
-22 12 -44 64 -36 85 4 10 -3 19 -19 27 -38 17 -42 48 -10 76 27 23 28 26 26
115 -1 82 1 95 21 120 l23 28 660 1 c868 0 791 2 815 -22 18 -18 20 -33 20
-181 l0 -160 -29 17 c-17 10 -42 39 -56 66 -34 63 -43 62 -11 0 14 -27 37 -57
53 -67 15 -10 39 -29 53 -42 26 -24 50 -32 32 -10 -13 15 -19 83 -9 93 4 4 7
-2 7 -14 0 -12 5 -22 11 -22 5 0 7 -5 4 -10 -14 -22 7 -49 41 -56 20 -4 49
-18 65 -31 l29 -25 0 269 c0 227 -2 272 -16 291 l-15 22 -818 0 -819 0 -11 45
c-12 49 -13 50 -40 35 -12 -6 -30 -6 -52 1 -88 27 -143 39 -174 39 -28 0 -40
7 -66 40 -33 41 -69 57 -50 23z m201 -183 c-20 -3 -41 -10 -48 -14 -7 -4 -12
-2 -12 7 0 21 6 23 52 18 l43 -5 -35 -6z m51 -444 c-9 -11 -6 -21 15 -47 l27
-34 -33 32 c-28 27 -31 34 -20 47 7 9 15 16 17 16 3 0 0 -6 -6 -14z m-17 -112
c3 -8 2 -12 -4 -9 -6 3 -10 10 -10 16 0 14 7 11 14 -7z m486 -61 c-1 -27 -14
-53 -25 -49 -7 2 -39 -22 -70 -55 -46 -48 -62 -59 -89 -59 -25 0 -43 -11 -86
-55 -42 -43 -57 -52 -67 -43 -11 9 -3 22 44 69 49 49 64 59 93 59 30 0 45 9
89 54 29 30 51 59 47 64 -6 10 12 19 47 21 9 0 17 -2 17 -6z m50 -298 l0 -215
-40 0 -40 0 0 215 0 215 40 0 40 0 0 -215z m-110 -46 l0 -170 -36 3 -35 3 -2
168 -2 167 38 0 37 0 0 -171z m-100 -30 l0 -139 -40 0 -40 0 0 143 0 143 40
-4 40 -4 0 -139z m976 127 c3 -8 -1 -28 -10 -44 -8 -16 -12 -32 -9 -36 4 -3
28 -6 56 -6 l49 0 -7 -42 c-10 -67 -14 -75 -38 -82 -35 -9 -59 -7 -104 10 -43
17 -43 17 -43 66 0 42 4 54 25 70 14 11 32 33 40 49 17 31 32 37 41 15z
m-1086 -161 l0 -105 -34 0 c-41 0 -46 12 -46 128 l0 82 40 0 40 0 0 -105z
m960 25 c0 -43 -3 -50 -20 -50 -17 0 -20 7 -20 50 0 43 3 50 20 50 17 0 20 -7
20 -50z m114 -136 c7 -19 2 -18 -19 6 -16 17 -16 20 -3 15 9 -4 19 -13 22 -21z
m43 -6 c-3 -7 -5 -2 -5 12 0 14 2 19 5 13 2 -7 2 -19 0 -25z"/>
<path d="M2410 2315 c13 -14 26 -25 28 -25 3 0 -5 11 -18 25 -13 14 -26 25
-28 25 -3 0 5 -11 18 -25z"/>
<path d="M1930 2291 c0 -13 29 -41 43 -42 39 -4 87 19 87 43 0 4 -29 8 -65 8
-36 0 -65 -4 -65 -9z"/>
<path d="M905 2007 c36 -25 54 -32 63 -25 6 6 12 13 12 17 0 13 -40 31 -82 37
l-43 6 50 -35z"/>
<path d="M2690 2027 c0 -4 7 -21 15 -37 13 -24 22 -30 48 -29 26 0 28 2 12 8
-11 5 -23 7 -27 4 -4 -2 -17 11 -28 29 -11 18 -20 29 -20 25z"/>
<path d="M2657 1995 c-4 -8 -16 -15 -27 -15 -12 0 -18 -4 -15 -10 11 -18 43
-11 48 12 7 26 2 36 -6 13z"/>
<path d="M2410 1991 c0 -5 5 -13 10 -16 6 -3 10 -2 10 4 0 5 -4 13 -10 16 -5
3 -10 2 -10 -4z"/>
<path d="M1895 1980 c3 -6 -4 -15 -17 -20 l-23 -10 25 3 c24 2 43 37 20 37 -6
0 -8 -5 -5 -10z"/>
<path d="M1940 1970 c6 -11 17 -20 25 -20 11 0 10 5 -5 20 -11 11 -22 20 -25
20 -3 0 -1 -9 5 -20z"/>
<path d="M2054 1982 c5 -7 -1 -16 -16 -21 -23 -10 -23 -10 -1 -10 27 -1 40 17
23 32 -10 9 -11 9 -6 -1z"/>
<path d="M2100 1973 c6 -13 18 -23 28 -22 14 0 14 2 2 6 -8 4 -21 13 -28 22
-11 14 -11 13 -2 -6z"/>
<path d="M2255 1980 c3 -5 8 -10 11 -10 2 0 4 5 4 10 0 6 -5 10 -11 10 -5 0
-7 -4 -4 -10z"/>
<path d="M1025 1970 c-11 -5 -29 -12 -40 -16 -16 -6 -13 -9 20 -15 68 -13 85
-11 85 11 0 11 -4 20 -9 20 -5 0 -15 2 -23 4 -7 3 -22 1 -33 -4z"/>
<path d="M2195 1960 c-18 -8 -17 -9 8 -9 15 -1 27 4 27 9 0 12 -8 12 -35 0z"/>
<path d="M2347 1958 c2 -5 13 -8 24 -8 10 0 19 3 19 8 0 4 -11 7 -24 7 -13 0
-22 -3 -19 -7z"/>
<path d="M2294 1951 c28 -6 28 -6 9 -24 -23 -20 -20 -62 4 -71 9 -4 11 -2 6 7
-14 23 -13 50 2 67 18 20 10 30 -24 29 -26 -1 -26 -1 3 -8z"/>
<path d="M2454 1952 c26 -6 28 -8 13 -21 -10 -7 -17 -25 -17 -39 0 -29 12 -22
17 10 2 12 10 29 18 38 13 14 11 16 -23 17 -33 1 -34 0 -8 -5z"/>
<path d="M2580 1942 c0 -6 -8 -9 -17 -6 -13 4 -13 2 2 -6 11 -7 26 -20 33 -28
11 -14 12 -13 12 5 0 11 -7 26 -15 33 -10 8 -15 9 -15 2z"/>
<path d="M1862 1920 c7 -11 17 -20 22 -20 5 0 1 9 -9 20 -10 11 -20 20 -22 20
-2 0 2 -9 9 -20z"/>
<path d="M1977 1922 c-24 -27 -21 -36 4 -13 27 25 49 17 49 -18 1 -23 2 -24
11 -8 8 14 7 23 -7 38 -21 24 -36 24 -57 1z"/>
<path d="M2138 1923 c-10 -12 -12 -26 -7 -43 l7 -25 1 25 c1 14 5 31 10 39 14
21 41 5 41 -24 0 -15 4 -24 10 -20 16 10 12 36 -7 51 -24 18 -37 17 -55 -3z"/>
<path d="M2755 1920 c-13 -15 -16 -28 -11 -56 6 -27 4 -34 -5 -28 -8 4 -10 3
-5 -5 14 -21 27 0 20 34 -5 27 -2 36 15 47 12 7 21 16 21 20 0 14 -17 8 -35
-12z"/>
<path d="M2345 1914 c9 -9 14 -23 11 -31 -3 -8 -1 -11 4 -8 16 10 12 42 -6 49
-25 9 -27 7 -9 -10z"/>
<path d="M1535 1912 c-6 -4 -16 -18 -23 -32 -7 -14 -10 -17 -7 -7 2 10 1 16
-4 13 -5 -3 -11 -15 -14 -26 -8 -32 32 -47 83 -30 32 10 42 11 55 0 20 -16 19
-79 -1 -108 -14 -20 -14 -22 4 -22 17 0 20 8 21 56 0 31 4 60 7 65 9 15 -16
78 -36 89 -22 12 -70 13 -85 2z"/>
<path d="M2526 1907 c3 -10 9 -15 12 -12 3 3 0 11 -7 18 -10 9 -11 8 -5 -6z"/>
<path d="M1902 1871 c-9 -5 -3 -8 18 -9 17 0 28 4 25 9 -8 11 -26 11 -43 0z"/>
<path d="M2062 1872 c-8 -6 -2 -9 17 -9 17 0 28 4 25 9 -7 10 -25 10 -42 0z"/>
<path d="M2226 1871 c-3 -5 5 -8 18 -7 13 0 22 4 19 9 -6 10 -31 9 -37 -2z"/>
<path d="M2385 1871 c-3 -5 8 -9 25 -9 21 1 27 4 18 9 -17 11 -35 11 -43 0z"/>
<path d="M2611 1843 c-1 -26 26 -32 47 -11 10 10 15 10 22 -2 7 -11 9 -10 7 8
-2 26 0 26 -37 7 -26 -13 -29 -13 -33 3 -4 13 -5 11 -6 -5z"/>
<path d="M1875 1830 c-3 -5 1 -10 10 -10 9 0 13 5 10 10 -3 6 -8 10 -10 10 -2
0 -7 -4 -10 -10z"/>
<path d="M2298 1823 c7 -3 16 -2 19 1 4 3 -2 6 -13 5 -11 0 -14 -3 -6 -6z"/>
<path d="M1492 1795 c0 -16 2 -22 5 -12 2 9 2 23 0 30 -3 6 -5 -1 -5 -18z"/>
<path d="M1302 1768 c-17 -17 -15 -31 7 -45 18 -11 20 -10 19 18 -1 34 -10 43
-26 27z"/>
<path d="M1838 1773 c7 -3 16 -2 19 1 4 3 -2 6 -13 5 -11 0 -14 -3 -6 -6z"/>
<path d="M1968 1773 c23 -2 59 -2 80 0 20 2 1 4 -43 4 -44 0 -61 -2 -37 -4z"/>
<path d="M2188 1773 c17 -2 47 -2 65 0 17 2 3 4 -33 4 -36 0 -50 -2 -32 -4z"/>
<path d="M2373 1773 c37 -2 96 -2 130 0 34 2 4 3 -68 3 -71 0 -99 -1 -62 -3z"/>
<path d="M1495 1730 c-8 -25 -3 -33 17 -28 11 2 12 8 2 27 l-12 23 -7 -22z"/>
<path d="M1716 1703 c-6 -14 -5 -15 5 -6 7 7 10 15 7 18 -3 3 -9 -2 -12 -12z"/>
<path d="M1435 1670 c10 -11 20 -20 23 -20 3 0 -3 9 -13 20 -10 11 -20 20 -23
20 -3 0 3 -9 13 -20z"/>
<path d="M2118 1673 c23 -2 59 -2 80 0 20 2 1 4 -43 4 -44 0 -61 -2 -37 -4z"/>
<path d="M3036 1244 c10 -376 21 -417 23 -88 1 250 -1 293 -14 304 -14 11 -15
-12 -9 -216z"/>
<path d="M2927 1096 c-12 -35 -17 -81 -17 -158 l0 -108 49 0 c42 0 49 3 45 18
-2 9 -13 55 -24 101 -12 46 -24 109 -28 140 l-8 56 -17 -49z"/>
<path d="M2968 747 c-42 -25 -49 -40 -15 -33 12 3 43 8 68 11 40 5 46 9 42 25
-7 27 -47 25 -95 -3z"/>
<path d="M2813 743 c-18 -9 -33 -20 -33 -25 0 -4 29 -8 65 -8 63 0 65 1 65 25
0 22 -4 25 -32 24 -18 0 -48 -8 -65 -16z"/>
</g>
</svg>
